:version 1.10
:name ASF
:units
  mass 1
  length 1
  angle deg
:documentation
  ASF file generated by Kaydara
:root
  axis xyz
  order  tx ty tz rx ry rz
  position 0 0 0
  orientation 0 0 0
:bonedata
  begin
    id 1
    name RightUpLegDummy
    direction -0.718183 -0.695806 0.00816078
    length 4.904
    axis 0 0 0 xyz
  end
  begin
    id 2
    name RightUpLeg
    direction 3.53989e-006 -0.995788 0.0916897
    length 17.4976
    axis -3.49089 -0.000906621 0.000287158 xyz
    dof rx ry rz
  end
  begin
    id 3
    name RightLeg
    direction 0.00371093 -0.995096 -0.0988418
    length 16.5821
    axis 3.68512 0.0193738 -0.131023 xyz
    dof rx ry rz
  end
  begin
    id 4
    name RightFoot
    direction 0.000791514 -0.46099 0.887405
    length 3.77069
    axis 4.84075e-005 -0.120479 -0.188788 xyz
    dof rx ry rz
  end
  begin
    id 5
    name RightToes
    direction 0.00124746 -0.014064 0.9999
    length 3.85082
    axis 0.00048216 0.542163 -0.142577 xyz
    dof rx ry rz
  end
  begin
    id 6
    name SpineDummy
    direction 8.36599e-015 1 5.97571e-016
    length 4.6813
    axis 0 0 0 xyz
  end
  begin
    id 7
    name Spine
    direction -4.63632e-008 0.999988 0.00495137
    length 10.1015
    axis -0.00138897 0.000121419 3.25764e-006 xyz
    dof rx ry rz
  end
  begin
    id 8
    name Spine1
    direction 0 0 0
    length 0
    axis -0.00138896 0.000121452 2.39764e-006 xyz
    dof rx ry rz
  end
  begin
    id 9
    name HEadDummy
    direction -3.91456e-008 0.999999 0.00127422
    length 3.43865
    axis -0.00138896 0.000121452 2.39764e-006 xyz
  end
  begin
    id 10
    name HEad
    direction -0.0222688 0.980941 0.193023
    length 5.12695
    axis -0.00138895 0.000121452 2.39764e-006 xyz
    dof rx ry rz
  end
  begin
    id 11
    name LeftShoulder1Dummy
    direction 0.998891 -0.0402508 -0.0244456
    length 3.5433
    axis -0.00138896 0.000121452 2.39764e-006 xyz
  end
  begin
    id 12
    name LeftShoulder1
    direction 0.99951 -0.000327743 0.0313091
    length 4.05031
    axis -0.00138896 0.000121452 2.39764e-006 xyz
    dof rx ry rz
  end
  begin
    id 13
    name LeftArm
    direction 0.998561 -0.00100054 -0.0536182
    length 10.3537
    axis -23.1894 0.134784 0.96751 xyz
    dof rx ry rz
  end
  begin
    id 14
    name LeftForeArm
    direction 0.998903 0.00866434 0.046012
    length 8.70632
    axis -9.91835 -0.06569 -0.177792 xyz
    dof rx ry rz
  end
  begin
    id 15
    name LeftHand
    direction 0.992938 -0.0411636 0.11126
    length 5.32135
    axis -0.00960227 -0.00340091 0.185174 xyz
    dof rx ry rz
  end
  begin
    id 16
    name RightShoulderDummy
    direction -0.998891 -0.0402509 -0.0244414
    length 3.5433
    axis -0.00138896 0.000121452 2.39764e-006 xyz
  end
  begin
    id 17
    name RightShoulder
    direction -0.99951 -0.000327827 0.0313133
    length 4.05031
    axis 0.215806 0.000203644 -0.00680151 xyz
    dof rx ry rz
  end
  begin
    id 18
    name RightArm
    direction -0.998573 -0.000999583 -0.053403
    length 10.3947
    axis -23.2009 -0.134239 -0.9641 xyz
    dof rx ry rz
  end
  begin
    id 19
    name RightForeArm
    direction -0.998898 0.00868026 0.0461306
    length 8.68355
    axis -9.92322 0.0658061 0.178869 xyz
    dof rx ry rz
  end
  begin
    id 20
    name RightHand
    direction -0.992843 -0.0414603 0.112003
    length 5.28593
    axis -0.00960634 0.00330671 -0.185226 xyz
    dof rx ry rz
  end
  begin
    id 21
    name LeftUpLegDummy
    direction 0.718183 -0.695806 0.00816078
    length 4.904
    axis 0 0 0 xyz
  end
  begin
    id 22
    name LeftUpLeg
    direction -6.8115e-006 -0.995793 0.0916336
    length 17.4976
    axis -3.48766 0.00143441 -0.000523914 xyz
    dof rx ry rz
  end
  begin
    id 23
    name LeftLeg
    direction -0.00601357 -0.995091 -0.0987824
    length 16.5821
    axis 3.68177 -0.00654038 -0.00028478 xyz
    dof rx ry rz
  end
  begin
    id 24
    name LeftFoot
    direction -0.00417578 -0.460984 0.887399
    length 3.77069
    axis 1.87232e-006 4.66002e-005 -8.1837e-006 xyz
    dof rx ry rz
  end
  begin
    id 25
    name LeftToes
    direction 0.00818058 -0.00485161 0.999955
    length 3.85048
    axis 1.06246e-005 4.65855e-005 -8.18502e-006 xyz
    dof rx ry rz
  end
:hierarchy
  begin
    root RightUpLegDummy SpineDummy LeftUpLegDummy
    RightUpLegDummy RightUpLeg
    RightUpLeg RightLeg
    RightLeg RightFoot
    RightFoot RightToes
    SpineDummy Spine
    Spine Spine1
    Spine1 HEadDummy LeftShoulder1Dummy RightShoulderDummy
    HEadDummy HEad
    LeftShoulder1Dummy LeftShoulder1
    LeftShoulder1 LeftArm
    LeftArm LeftForeArm
    LeftForeArm LeftHand
    RightShoulderDummy RightShoulder
    RightShoulder RightArm
    RightArm RightForeArm
    RightForeArm RightHand
    LeftUpLegDummy LeftUpLeg
    LeftUpLeg LeftLeg
    LeftLeg LeftFoot
    LeftFoot LeftToes
  end

:SAMPLES-PER-SECOND 30
:FULLY-SPECIFIED
:DEGREES
1
root  5.88561 39.0641 6.93144 -117.158 -83.3419 115.21
RightUpLeg  -15.1075 8.78584 -17.407
RightLeg  23.6599 -13.4183 -6.54955
RightFoot  -1.81238 -1.18103 13.9567
RightToes  5.82063e-011 0 -3.6325e-017
Spine  7.11126 3.28744 -6.66624
Spine1  -2.73005 3.84913 -5.8129
HEad  7.78109 -12.0301 -5.47112
LeftShoulder1  1.31661 -4.2418 -9.651
LeftArm  58.8894 28.1331 -36.3538
LeftForeArm  111.439 -81.1994 -70.5566
LeftHand  -1.47411 1.20472 39.7071
RightShoulder  1.04464 1.96521 12.0566
RightArm  54.27 -27.9822 35.2355
RightForeArm  89.5079 79.2806 51.3508
RightHand  -2.59282 6.83563 -24.5659
LeftUpLeg  -8.00149 4.96014 -9.40995
LeftLeg  17.4936 16.6818 2.89441
LeftFoot  -8.93172 0.0571299 -0.423134
LeftToes  -1.1369e-010 2.7689e-011 -1.90827e-011
2
root  5.90213 39.0565 6.90015 -118.666 -83.2125 116.694
RightUpLeg  -15.2557 9.03197 -17.3895
RightLeg  23.7937 -13.3943 -6.57638
RightFoot  -1.82402 -1.17596 13.9126
RightToes  5.82063e-011 0 -3.6325e-017
Spine  7.25106 3.39104 -6.78993
Spine1  -2.85429 3.94254 -5.81111
HEad  7.72728 -12.0413 -5.40445
LeftShoulder1  1.30385 -4.22202 -9.51524
LeftArm  58.8793 28.1811 -36.4142
LeftForeArm  111.74 -81.2154 -70.866
LeftHand  -1.4845 1.15778 39.6027
RightShoulder  1.05299 1.99694 12.1026
RightArm  54.3191 -27.8953 35.2329
RightForeArm  89.2286 79.2646 51.3288
RightHand  -2.56693 6.66943 -24.6503
LeftUpLeg  -8.02969 5.09449 -9.31318
LeftLeg  17.5849 16.6396 2.81117
LeftFoot  -8.97402 0.0616155 -0.492844
LeftToes  -1.1369e-010 2.7689e-011 -1.90827e-011
3
root  5.91599 39.0483 6.85122 -120.4 -83.0658 118.387
RightUpLeg  -15.4204 9.31154 -17.3301
RightLeg  24.0113 -13.4187 -6.64946
RightFoot  -1.93511 -1.15941 13.8686
RightToes  5.82063e-011 0 -3.6325e-017
Spine  7.38634 3.5027 -6.94675
Spine1  -2.93481 4.03713 -5.77376
HEad  7.55726 -12.0169 -5.29137
LeftShoulder1  1.28741 -4.1801 -9.37931
LeftArm  58.9103 28.2286 -36.4504
LeftForeArm  112.256 -81.2417 -71.3541
LeftHand  -1.48714 1.14031 39.4999
RightShoulder  1.06491 2.05 12.1391
RightArm  54.3008 -27.8395 35.2413
RightForeArm  89.3519 79.292 51.5508
RightHand  -2.54691 6.55247 -24.6942
LeftUpLeg  -8.01367 5.29498 -9.15515
LeftLeg  17.6539 16.542 2.67137
LeftFoot  -9.03559 0.0644917 -0.537542
LeftToes  -1.1369e-010 2.7689e-011 -1.90827e-011
4
root  5.91093 39.0496 6.81778 -120.873 -83.0282 118.793
RightUpLeg  -15.3958 9.31212 -17.2758
RightLeg  24.0959 -13.392 -6.66105
RightFoot  -2.01564 -1.15082 13.8803
RightToes  5.82063e-011 0 -3.6325e-017
Spine  7.38495 3.52479 -7.00335
Spine1  -2.80433 4.04721 -5.71295
HEad  7.29722 -11.9537 -5.23587
LeftShoulder1  1.29077 -4.17389 -9.443
LeftArm  58.9557 28.1953 -36.3625
LeftForeArm  112.736 -81.265 -71.7603
LeftHand  -1.48994 1.12478 39.4347
RightShoulder  1.07019 2.07385 12.1345
RightArm  54.2285 -27.8182 35.2678
RightForeArm  89.682 79.3191 51.6642
RightHand  -2.55582 6.65158 -24.5829
LeftUpLeg  -7.90217 5.3994 -9.06221
LeftLeg  17.6116 16.4634 2.5928
LeftFoot  -9.03606 0.0655802 -0.561384
LeftToes  -1.1369e-010 2.7689e-011 -1.90827e-011
5
root  5.89763 39.059 6.80313 -120.434 -83.0951 118.279
RightUpLeg  -15.1894 8.94483 -17.2326
RightLeg  23.9238 -13.0488 -6.45278
RightFoot  -1.98842 -1.16948 14.0589
RightToes  5.82063e-011 0 -3.6325e-017
Spine  7.32568 3.46569 -6.91477
Spine1  -2.58995 3.99149 -5.71452
HEad  7.06853 -11.8513 -5.23236
LeftShoulder1  1.31424 -4.24655 -9.60517
LeftArm  58.9661 28.1408 -36.2154
LeftForeArm  113.038 -81.2781 -71.8742
LeftHand  -1.52851 1.02434 39.5107
RightShoulder  1.07159 2.06136 12.0723
RightArm  54.2204 -27.7633 35.3554
RightForeArm  89.6032 79.2866 51.3635
RightHand  -2.57613 6.86757 -24.3537
LeftUpLeg  -7.76385 5.39387 -9.03158
LeftLeg  17.5237 16.4286 2.61029
LeftFoot  -8.98973 0.0676388 -0.619607
LeftToes  -1.1369e-010 2.7689e-011 -1.90827e-011
